# xmcd CD database file
#
# Track frame offsets:
#	150
#	30554
#	52327
#	75496
#	93665
#	109969
#	133419
#	155554
#	169419
#	194359
#
# Disc length: 2919 seconds
#
# Revision: 0
# Processed by: cddbd v1.4PL0 Copyright (c) Steve Scherf et al.
# Submitted via: NeoAudio 1.50.6
#
DISCID=900b650a
DTITLE=Nina Ferro - Tender is the Night
DYEAR=1900
DGENRE=Jazz
TTITLE0=Over the Rainbow
TTITLE1=My Blue Heaven
TTITLE2=Moon River
TTITLE3=East of the Sun
TTITLE4=Stardust
TTITLE5=Moonglow
TTITLE6=Cheek to Cheek
TTITLE7=Fly Me to the Moon
TTITLE8=Come Rain or Come Shine
TTITLE9=My Foolish Heart
EXTD=
EXTT0=
EXTT1=
EXTT2=
EXTT3=
EXTT4=
EXTT5=
EXTT6=
EXTT7=
EXTT8=
EXTT9=
PLAYORDER=
